<svg width="905" height="180" viewBox="0 0 905 180" fill="none" xmlns="http://www.w3.org/2000/svg">
<path d="M882.973 33.0247C882.316 32.3686 881.426 32 880.498 32C879.57 32 878.68 32.3686 878.024 33.0247L866.495 44.5536L892.443 70.5023L903.972 58.9804C904.298 58.6553 904.556 58.2691 904.733 57.8439C904.909 57.4187 905 56.9628 905 56.5024C905 56.0421 904.909 55.5862 904.733 55.161C904.556 54.7358 904.298 54.3496 903.972 54.0245L882.973 33.0247V33.0247ZM887.495 75.4512L861.547 49.5025L816.049 95.002H817.498C818.426 95.002 819.316 95.3707 819.972 96.0271C820.629 96.6834 820.997 97.5737 820.997 98.5019V102.002H824.497C825.425 102.002 826.316 102.371 826.972 103.027C827.628 103.683 827.997 104.574 827.997 105.502V109.002H831.497C832.425 109.002 833.315 109.371 833.972 110.027C834.628 110.683 834.997 111.573 834.997 112.502V116.002H838.497C839.425 116.002 840.315 116.37 840.971 117.027C841.628 117.683 841.996 118.573 841.996 119.502V120.951L887.495 75.4512V75.4512ZM835.221 127.727C835.074 127.335 834.998 126.92 834.997 126.502V123.002H831.497C830.569 123.002 829.679 122.633 829.022 121.976C828.366 121.32 827.997 120.43 827.997 119.502V116.002H824.497C823.569 116.002 822.679 115.633 822.022 114.977C821.366 114.32 820.997 113.43 820.997 112.502V109.002H817.498C816.569 109.002 815.679 108.633 815.023 107.977C814.366 107.32 813.998 106.43 813.998 105.502V102.002H810.498C810.079 102.001 809.665 101.925 809.273 101.778L808.02 103.024C807.686 103.36 807.425 103.76 807.25 104.2L793.251 139.199C792.996 139.835 792.934 140.532 793.071 141.203C793.209 141.874 793.541 142.49 794.025 142.975C794.51 143.459 795.125 143.791 795.797 143.929C796.468 144.066 797.164 144.004 797.8 143.749L832.799 129.75C833.239 129.575 833.639 129.313 833.975 128.98L835.221 127.734V127.727Z" fill="white"/>
<path d="M26.912 146.304C18.848 146.304 12.416 144.768 7.616 141.696C2.912 138.528 0.56 133.92 0.56 127.872C0.56 123.648 1.664 120.288 3.872 117.792C6.176 115.2 9.152 113.904 12.8 113.904C16.064 113.904 18.56 115.152 20.288 117.648C16.736 119.76 14.96 123.216 14.96 128.016C14.96 130.8 15.92 133.152 17.84 135.072C19.856 136.896 22.688 137.808 26.336 137.808C30.56 137.808 34.208 136.368 37.28 133.488C40.448 130.608 42.8 126.912 44.336 122.4C45.968 117.792 46.784 112.944 46.784 107.856C46.784 101.52 45.392 96.96 42.608 94.176C39.824 91.296 35.696 89.856 30.224 89.856H24.176L26.48 79.2H31.664C35.792 79.2 39.344 78 42.32 75.6C45.392 73.2 47.696 70.272 49.232 66.816C50.864 63.264 51.68 59.952 51.68 56.88C51.68 53.328 50.72 50.592 48.8 48.672C46.88 46.656 44.096 45.648 40.448 45.648C31.424 45.648 24.08 51.168 18.416 62.208L15.104 60.768C17.12 52.704 21.104 46.608 27.056 42.48C33.104 38.256 40.256 36.144 48.512 36.144C56.576 36.144 62.72 38.112 66.944 42.048C71.168 45.984 73.28 51.216 73.28 57.744C73.28 63.984 71.36 69.36 67.52 73.872C63.776 78.288 58.496 81.648 51.68 83.952C64.064 87.504 70.256 95.616 70.256 108.288C70.256 115.104 68.48 121.44 64.928 127.296C61.472 133.056 56.432 137.664 49.808 141.12C43.28 144.576 35.648 146.304 26.912 146.304ZM94.9363 144.864C89.4643 144.864 84.9043 142.992 81.2563 139.248C77.6082 135.504 75.7842 129.648 75.7842 121.68C75.7842 114.576 77.1763 107.136 79.9603 99.36C82.8403 91.488 87.0643 84.864 92.6323 79.488C98.2963 74.016 105.016 71.28 112.792 71.28C116.728 71.28 119.656 71.952 121.576 73.296C123.496 74.64 124.456 76.416 124.456 78.624V79.632L126.04 72H146.776L136.408 120.96C136.024 122.4 135.832 123.936 135.832 125.568C135.832 129.696 137.8 131.76 141.736 131.76C144.424 131.76 146.728 130.512 148.648 128.016C150.664 125.52 152.248 122.256 153.4 118.224H159.448C155.896 128.592 151.48 135.648 146.2 139.392C141.016 143.04 135.784 144.864 130.504 144.864C126.472 144.864 123.208 143.76 120.712 141.552C118.312 139.248 116.872 135.936 116.392 131.616C113.608 135.552 110.488 138.768 107.032 141.264C103.672 143.664 99.6403 144.864 94.9363 144.864ZM104.296 130.896C106.696 130.896 109.048 129.792 111.352 127.584C113.752 125.28 115.384 122.16 116.248 118.224L123.16 85.68C123.16 84.432 122.68 83.232 121.72 82.08C120.76 80.832 119.272 80.208 117.256 80.208C113.416 80.208 109.96 82.464 106.888 86.976C103.816 91.392 101.416 96.768 99.6883 103.104C97.9603 109.344 97.0963 114.864 97.0963 119.664C97.0963 124.464 97.7683 127.536 99.1123 128.88C100.552 130.224 102.28 130.896 104.296 130.896ZM278.589 118.224C272.541 135.984 263.613 144.864 251.805 144.864C246.333 144.864 242.109 143.424 239.133 140.544C236.253 137.568 234.813 133.92 234.813 129.6C234.813 125.856 235.821 119.472 237.837 110.448L242.013 91.728L215.949 144H198.957L195.069 83.664C193.341 85.68 191.805 88.608 190.461 92.448C189.117 96.192 187.821 101.28 186.573 107.712C184.749 117.12 183.069 124.32 181.533 129.312C180.093 134.304 178.029 138.144 175.341 140.832C172.749 143.52 169.245 144.864 164.829 144.864C159.645 144.864 155.565 143.28 152.589 140.112C149.517 136.848 147.981 132.912 147.981 128.304C147.981 125.04 148.749 122.448 150.285 120.528C151.821 118.512 153.933 117.504 156.621 117.504C158.925 117.504 160.797 118.224 162.237 119.664C163.677 121.104 164.397 122.832 164.397 124.848C164.397 127.152 163.821 128.928 162.669 130.176C161.517 131.328 160.173 131.808 158.637 131.616C158.637 135.264 160.509 137.088 164.253 137.088C166.941 137.088 169.149 136.128 170.877 134.208C172.605 132.192 174.093 128.928 175.341 124.416C176.685 119.904 178.125 113.376 179.661 104.832C181.773 92.64 184.941 84.144 189.165 79.344C193.485 74.448 199.101 72 206.013 72H212.493L215.229 127.296L242.445 72H265.773L258.141 107.712C257.181 111.84 256.365 115.44 255.693 118.512C255.021 121.584 254.685 123.696 254.685 124.848C254.685 128.88 256.605 130.896 260.445 130.896C263.133 130.896 265.293 129.984 266.925 128.16C268.557 126.336 270.429 123.024 272.541 118.224H278.589ZM293.155 144.864C286.051 144.864 280.531 143.04 276.595 139.392C272.659 135.648 270.69 129.84 270.69 121.968C270.69 115.344 271.986 108.048 274.579 100.08C277.171 92.112 281.395 85.248 287.251 79.488C293.107 73.632 300.547 70.704 309.57 70.704C320.131 70.704 325.411 75.312 325.411 84.528C325.411 89.904 323.875 94.848 320.803 99.36C317.731 103.872 313.651 107.52 308.562 110.304C303.475 112.992 298.051 114.528 292.291 114.912C292.099 117.792 292.003 119.712 292.003 120.672C292.003 125.376 292.819 128.592 294.451 130.32C296.083 131.952 298.723 132.768 302.371 132.768C307.555 132.768 311.971 131.568 315.619 129.168C319.363 126.768 323.443 123.12 327.859 118.224H332.755C322.099 135.984 308.899 144.864 293.155 144.864ZM293.443 108C296.995 107.808 300.355 106.56 303.523 104.256C306.787 101.952 309.379 99.024 311.299 95.472C313.315 91.92 314.323 88.176 314.323 84.24C314.323 80.304 313.123 78.336 310.723 78.336C307.267 78.336 303.859 81.36 300.499 87.408C297.235 93.456 294.883 100.32 293.443 108ZM415.38 144.864C409.524 144.864 405.204 143.328 402.42 140.256C399.732 137.088 398.388 133.2 398.388 128.592C398.388 126.576 398.628 124.32 399.108 121.824C399.588 119.232 400.068 116.736 400.548 114.336C401.124 111.936 401.508 110.4 401.7 109.728C402.468 106.368 403.188 103.056 403.86 99.792C404.532 96.528 404.868 93.888 404.868 91.872C404.868 86.976 403.14 84.528 399.684 84.528C397.188 84.528 394.98 85.776 393.06 88.272C391.14 90.672 389.604 93.84 388.452 97.776L378.66 144H357.924L368.436 94.32C368.724 93.168 368.868 91.968 368.868 90.72C368.868 86.496 367.428 84.384 364.548 84.384C361.86 84.384 359.508 85.632 357.492 88.128C355.572 90.528 354.036 93.744 352.884 97.776L343.092 144H322.356L337.62 72H358.356L356.772 79.488C361.668 74.016 367.524 71.28 374.34 71.28C382.788 71.28 387.732 75.408 389.172 83.664C394.452 75.504 401.124 71.424 409.188 71.424C414.084 71.424 417.972 72.768 420.852 75.456C423.732 78.144 425.172 82.224 425.172 87.696C425.172 90.48 424.836 93.6 424.164 97.056C423.492 100.416 422.532 104.544 421.284 109.44C420.516 112.416 419.796 115.344 419.124 118.224C418.548 121.008 418.26 123.216 418.26 124.848C418.26 126.768 418.692 128.256 419.556 129.312C420.42 130.368 421.908 130.896 424.02 130.896C426.9 130.896 429.204 129.888 430.932 127.872C432.66 125.76 434.388 122.544 436.116 118.224H442.164C438.612 128.784 434.484 135.888 429.78 139.536C425.172 143.088 420.372 144.864 415.38 144.864ZM457.133 144.576C450.029 144.576 444.413 142.752 440.285 139.104C436.157 135.456 434.093 129.696 434.093 121.824C434.093 115.296 435.437 108.048 438.125 100.08C440.813 92.112 445.133 85.248 451.085 79.488C457.037 73.632 464.525 70.704 473.549 70.704C485.837 70.704 491.981 78.384 491.981 93.744V93.888C492.269 93.984 492.797 94.032 493.565 94.032C496.733 94.032 500.381 93.216 504.509 91.584C508.637 89.856 512.381 87.792 515.741 85.392L517.037 89.28C514.253 92.256 510.605 94.8 506.093 96.912C501.677 98.928 496.829 100.368 491.549 101.232C490.781 109.968 488.813 117.6 485.645 124.128C482.477 130.656 478.397 135.696 473.405 139.248C468.413 142.8 462.989 144.576 457.133 144.576ZM462.893 131.616C465.197 131.616 467.501 130.32 469.805 127.728C472.109 125.04 474.125 121.44 475.853 116.928C477.581 112.32 478.829 107.232 479.597 101.664C477.005 101.088 475.709 99.072 475.709 95.616C475.709 91.68 477.197 89.088 480.173 87.84C479.981 84.672 479.501 82.512 478.733 81.36C477.965 80.112 476.621 79.488 474.701 79.488C471.533 79.488 468.461 81.792 465.485 86.4C462.509 91.008 460.109 96.528 458.285 102.96C456.461 109.392 455.549 115.056 455.549 119.952C455.549 124.56 456.077 127.68 457.133 129.312C458.189 130.848 460.109 131.616 462.893 131.616ZM547.808 144.864C543.2 144.864 539.456 143.424 536.576 140.544C533.792 137.664 532.4 133.344 532.4 127.584C532.4 125.184 532.784 122.064 533.552 118.224L534.272 114.624C531.488 117.696 528.656 119.808 525.776 120.96C522.896 122.112 519.968 122.688 516.992 122.688C512.384 122.688 508.64 121.248 505.76 118.368C502.976 115.488 501.584 111.168 501.584 105.408C501.584 103.008 501.968 99.888 502.736 96.048L507.776 72H528.512L522.896 98.784C522.608 100.224 522.464 101.568 522.464 102.816C522.464 106.752 523.904 108.72 526.784 108.72C529.568 108.72 531.968 107.568 533.984 105.264C536.096 102.864 537.536 99.792 538.304 96.048L543.344 72H564.08L553.712 120.96C553.328 122.4 553.136 123.936 553.136 125.568C553.136 127.488 553.568 128.88 554.432 129.744C555.392 130.512 556.928 130.896 559.04 130.896C561.728 130.896 564.032 129.744 565.952 127.44C567.968 125.136 569.552 122.064 570.704 118.224H576.752C573.2 128.592 568.784 135.648 563.504 139.392C558.32 143.04 553.088 144.864 547.808 144.864ZM622.96 144.864C617.488 144.864 613.264 143.424 610.288 140.544C607.408 137.568 605.968 133.92 605.968 129.6C605.968 126.816 607.072 120.096 609.28 109.44H593.296L585.952 144H565.215L580.48 72H601.216L595.024 100.8H611.152L617.632 72H636.928L629.296 107.712C628.336 111.84 627.52 115.44 626.848 118.512C626.176 121.584 625.84 123.696 625.84 124.848C625.84 128.88 627.76 130.896 631.6 130.896C634.288 130.896 636.448 129.984 638.08 128.16C639.712 126.336 641.584 123.024 643.696 118.224H649.744C643.696 135.984 634.768 144.864 622.96 144.864ZM657.928 144.864C653.32 144.864 649.576 143.424 646.696 140.544C643.912 137.664 642.52 133.344 642.52 127.584C642.52 125.184 642.904 122.064 643.672 118.224L653.464 72H674.2L663.832 120.96C663.544 122.4 663.4 123.744 663.4 124.992C663.4 128.928 664.84 130.896 667.72 130.896C670.408 130.896 672.712 129.792 674.632 127.584C676.552 125.28 678.088 122.16 679.24 118.224L689.032 72H709.768L699.4 120.96C699.016 122.4 698.824 123.936 698.824 125.568C698.824 127.488 699.256 128.88 700.12 129.744C701.08 130.512 702.616 130.896 704.728 130.896C707.416 130.896 709.72 129.744 711.64 127.44C713.656 125.136 715.24 122.064 716.392 118.224H722.44C718.888 128.592 714.472 135.648 709.192 139.392C704.008 143.04 698.776 144.864 693.496 144.864C689.368 144.864 686.056 143.712 683.56 141.408C681.16 139.104 679.72 135.696 679.24 131.184C675.976 136.464 672.52 140.064 668.872 141.984C665.32 143.904 661.672 144.864 657.928 144.864ZM766.775 144.864C762.071 144.864 758.231 143.424 755.255 140.544C752.375 137.568 750.935 133.68 750.935 128.88C750.935 126.576 751.271 123.984 751.943 121.104C752.039 120.432 752.183 119.424 752.375 118.08C752.567 116.736 752.663 115.632 752.663 114.768C752.663 112.752 752.231 111.168 751.367 110.016C750.503 108.864 749.207 108.288 747.479 108.288C746.135 108.288 744.887 108.672 743.735 109.44C742.583 110.112 740.663 111.504 737.975 113.616L731.639 144H710.903L726.311 72H747.047L740.855 100.512C745.847 95.52 750.359 90.768 754.391 86.256C758.327 82.032 761.303 78.96 763.319 77.04C765.431 75.024 767.543 73.488 769.655 72.432C771.767 71.28 774.071 70.704 776.567 70.704C779.927 70.704 782.471 71.568 784.199 73.296C785.927 75.024 786.791 77.376 786.791 80.352C786.791 83.232 785.975 85.488 784.343 87.12C782.807 88.752 780.599 89.568 777.719 89.568C774.935 89.568 772.919 88.848 771.671 87.408C770.423 85.872 769.799 84.144 769.799 82.224C767.879 83.472 766.103 84.864 764.471 86.4C762.935 87.84 760.823 90 758.135 92.88C754.679 96.624 752.903 98.544 752.807 98.64C754.727 98.256 756.743 98.064 758.855 98.064C768.167 98.064 772.823 102.288 772.823 110.736C772.823 112.848 772.439 115.536 771.671 118.8C770.999 121.296 770.663 123.408 770.663 125.136C770.663 128.976 772.679 130.896 776.711 130.896C779.207 130.896 781.127 130.416 782.471 129.456C781.991 134.544 780.359 138.384 777.575 140.976C774.791 143.568 771.191 144.864 766.775 144.864Z" fill="white"/>
</svg>
