<?xml version="1.0" standalone="no"?>
<!DOCTYPE svg PUBLIC "-//W3C//DTD SVG 20010904//EN"
 "http://www.w3.org/TR/2001/REC-SVG-20010904/DTD/svg10.dtd">
<svg version="1.0" xmlns="http://www.w3.org/2000/svg"
 width="568.000000pt" height="568.000000pt" viewBox="0 0 568.000000 568.000000"
 preserveAspectRatio="xMidYMid meet">
<metadata>
Created by potrace 1.14, written by Peter Selinger 2001-2017
</metadata>
<g transform="translate(0.000000,568.000000) scale(0.100000,-0.100000)"
fill="#000000" stroke="none">
<path d="M514 5460 c-35 -14 -81 -68 -88 -102 -4 -25 -9 -398 -7 -568 1 -83 1
-227 2 -442 l0 -258 -28 -1 c-65 -2 -173 -23 -198 -38 -5 -3 -15 -6 -22 -7
-30 -5 -117 -74 -144 -114 -26 -39 -30 -52 -25 -93 6 -62 38 -109 101 -151 73
-47 153 -73 249 -81 32 -2 60 -6 62 -8 2 -1 3 -54 3 -117 0 -63 0 -124 0 -135
1 -97 0 -190 -2 -191 -1 -1 -28 -4 -60 -8 -166 -17 -294 -83 -341 -175 -38
-73 14 -201 92 -225 12 -4 22 -11 22 -15 0 -5 26 -18 58 -29 69 -25 122 -36
210 -41 l22 -1 0 -270 0 -270 -22 0 c-88 -2 -203 -33 -272 -73 -193 -112 -157
-294 75 -380 46 -18 70 -22 164 -34 28 -3 51 -6 52 -7 2 -2 3 -146 2 -198 0
-18 0 -458 0 -480 0 -28 1 -191 1 -318 0 -74 3 -149 6 -166 10 -57 79 -114
139 -114 19 0 35 -4 35 -10 0 -42 37 -98 80 -120 39 -20 52 -20 2464 -20
l2425 0 35 21 c19 11 44 36 55 55 l21 35 0 2383 c0 1311 -3 2398 -6 2416 -9
40 -60 93 -104 106 l-33 9 1 64 c0 35 -3 74 -8 86 -11 30 -56 74 -87 86 -31
11 -4900 11 -4929 -1z"/>
</g>
</svg>
